<?xml version="1.0" encoding="UTF-8" standalone="no"?>
<!-- Created with Inkscape (http://www.inkscape.org/) -->

<svg
   width="100mm"
   height="80mm"
   viewBox="0 0 100 80"
   version="1.1"
   id="svg5"
   inkscape:version="1.1 (c68e22c387, 2021-05-23)"
   sodipodi:docname="logo_2.svg"
   inkscape:export-filename="C:\Users\Spencer\Desktop\128.png"
   inkscape:export-xdpi="32.512001"
   inkscape:export-ydpi="32.512001"
   xmlns:inkscape="http://www.inkscape.org/namespaces/inkscape"
   xmlns:sodipodi="http://sodipodi.sourceforge.net/DTD/sodipodi-0.dtd"
   xmlns="http://www.w3.org/2000/svg"
   xmlns:svg="http://www.w3.org/2000/svg">
  <sodipodi:namedview
     id="namedview7"
     pagecolor="#ffffff"
     bordercolor="#999999"
     borderopacity="1"
     inkscape:pageshadow="0"
     inkscape:pageopacity="0"
     inkscape:pagecheckerboard="0"
     inkscape:document-units="mm"
     showgrid="false"
     width="100mm"
     inkscape:zoom="1.0482005"
     inkscape:cx="38.637647"
     inkscape:cy="82.522381"
     inkscape:window-width="1920"
     inkscape:window-height="1017"
     inkscape:window-x="-8"
     inkscape:window-y="-8"
     inkscape:window-maximized="1"
     inkscape:current-layer="layer1" />
  <defs
     id="defs2" />
  <g
     inkscape:label="Layer 1"
     inkscape:groupmode="layer"
     id="layer1">
    <g
       id="g31978"
       transform="matrix(1.0237249,0,0,1.0237249,-1.1862446,-11.186245)">
      <g
         id="g31885"
         transform="translate(-12.725559,-0.735758)">
        <g
           id="g580"
           style="fill:#4d4d4d;stroke:#4d4d4d"
           transform="translate(-97.180439,54.522013)">
          <g
             id="g262"
             style="fill:#4d4d4d;stroke:#4d4d4d"
             transform="translate(110.30611,-53.764763)">
            <rect
               style="fill:#4d4d4d;stroke:#4d4d4d;stroke-width:0.264583"
               id="rect131"
               width="81.278191"
               height="74.21051"
               x="1.2620835"
               y="12.873253"
               ry="5.6892529"
               rx="5.5531678" />
            <rect
               style="fill:#4d4d4d;stroke:#4d4d4d;stroke-width:0.252478"
               id="rect131-3"
               width="96.687714"
               height="56.805862"
               x="1.2560308"
               y="12.867203"
               ry="4.3549476"
               rx="6.6059923" />
          </g>
          <rect
             style="fill:#4d4d4d;stroke:#4d4d4d;stroke-width:0.263121"
             id="rect286"
             width="67.649139"
             height="51.494473"
             x="140.59538"
             y="-18.427153"
             ry="18.563032" />
        </g>
        <circle
           style="fill:#ff0000;fill-opacity:1;stroke:#ff0000;stroke-width:0.264583;stroke-opacity:1"
           id="path31761"
           cx="22.717501"
           cy="40.386677"
           r="1.5145004" />
      </g>
      <rect
         style="fill:#000000;fill-opacity:1;stroke:#171a11;stroke-width:0.264583;stroke-opacity:1"
         id="rect12210"
         width="60.07518"
         height="54.269596"
         x="19.96241"
         y="22.865202"
         ry="0" />
      <rect
         style="fill:#737b25;fill-opacity:1;stroke:#757924;stroke-width:0.264583;stroke-opacity:1"
         id="rect26821"
         width="54.269596"
         height="48.716427"
         x="22.865202"
         y="25.641787" />
    </g>
    <path
       style="fill:#000000;stroke-width:0.0782896"
       d="m 52.375274,52.258594 -0.128971,-0.03425 -0.04612,-0.171957 -0.04611,-0.171958 -0.0011,-11.757402 -0.0011,-11.7574 0.123027,-0.123026 0.123027,-0.123026 h 9.849294 9.849295 l 0.08646,0.10417 0.08645,0.10417 0.02099,1.911784 0.02099,1.911784 1.940636,0.03914 1.940635,0.03914 0.07637,0.117434 0.07637,0.117435 -0.02064,1.823189 -0.02064,1.82319 -0.117435,0.07413 -0.117435,0.07413 -1.80457,0.0011 -1.804573,0.0011 -0.09395,0.09394 -0.09394,0.09394 v 1.737479 1.737479 l 0.123837,0.04752 0.123838,0.04752 h 1.817741 1.817742 l 0.09395,0.09395 0.09395,0.09394 v 3.853268 3.853268 l -0.04752,0.123835 -0.04752,0.123838 h -1.836574 -1.836572 l -0.151433,0.08104 -0.151431,0.08105 v 1.917274 1.917274 l -0.20082,0.07636 -0.200821,0.07636 -9.683224,-0.009 -9.683225,-0.009 z m 15.823257,-4.170064 0.08105,-0.151432 v -3.807333 -3.807333 l -0.08105,-0.151433 -0.08105,-0.151432 h -3.78788 -3.787882 l -0.123837,0.04752 -0.123839,0.04752 v 3.968729 3.96873 l 0.09394,0.09394 0.09394,0.09394 h 3.817771 3.817771 z m -0.06212,-11.878136 0.14317,-0.129568 V 34.26812 32.455415 l -0.111079,-0.15197 -0.111081,-0.151969 -3.675043,-0.02178 -3.675044,-0.02178 -0.20664,0.07856 -0.206639,0.07856 v 1.955285 1.955283 l 0.137006,0.0798 0.137007,0.0798 3.712586,0.0024 3.712587,0.0024 0.143169,-0.129569 z m -40.234626,15.657323 -0.09786,-0.03949 V 49.93232 48.036411 l 0.09394,-0.09394 0.09395,-0.09394 h 3.773004 3.773005 l 0.04752,-0.123838 0.04752,-0.123835 v -3.942595 -3.942596 l -0.09786,-0.06334 -0.09786,-0.06334 -3.797039,-0.03914 -3.79704,-0.03914 -0.03914,-1.761513 -0.03914,-1.761513 -0.06334,-0.09786 -0.06334,-0.09786 H 25.72271 23.8073 l -0.07636,-0.200822 -0.07635,-0.20082 v -1.671722 -1.671725 l 0.04752,-0.123837 0.04752,-0.123837 1.890144,-0.0011 1.890144,-0.0011 0.117432,-0.07413 0.117436,-0.07413 0.03914,-1.979772 0.03914,-1.979772 h 8.142105 8.142105 l 0.02102,1.918092 0.02102,1.918092 -0.133833,0.09786 -0.133834,0.09786 H 37.94311 31.984586 l -0.09394,0.09394 -0.09394,0.09394 v 1.892848 1.892848 l 0.105296,0.08739 0.1053,0.08739 6.059997,0.02006 6.059999,0.02006 0.03914,1.774743 0.03914,1.774742 0.06506,0.06506 0.06506,0.06507 1.774743,0.03914 1.774742,0.03914 v 4.031906 4.031908 l -1.784065,0.03914 -1.784065,0.03914 -0.07411,0.117433 -0.07411,0.117435 -0.0011,1.890144 -0.0011,1.890141 -0.123838,0.04752 -0.123838,0.04751 -7.959551,-0.0062 -7.95955,-0.0062 z m -4.199683,-4.221329 -0.04752,-0.123837 v -1.671726 -1.671722 l 0.07687,-0.202192 0.07687,-0.202191 1.93908,0.02095 1.93908,0.02095 0.02093,1.976809 0.02091,1.976808 h -1.989349 -1.989351 z"
       id="path32090" />
  </g>
</svg>
